HIERARCHY
ROOT Hips
{
	OFFSET -3.958830 18.904000 13.208200
	CHANNELS 6 Xposition Yposition Zposition Zrotation Yrotation Xrotation 
	JOINT LHipJoint
	{
		OFFSET 0.000000 0.000000 0.000000
		CHANNELS 3 Zrotation Yrotation Xrotation
		JOINT LeftUpLeg
		{
			OFFSET 1.800000 -1.400000 0.085000
			CHANNELS 3 Zrotation Yrotation Xrotation
			JOINT LeftLeg
			{
				OFFSET 2.215000 -6.000000 0.000000
				CHANNELS 3 Zrotation Yrotation Xrotation
				JOINT LeftFoot
				{
					OFFSET 2.500000 -6.900000 0.000000
					CHANNELS 3 Zrotation Yrotation Xrotation
					JOINT LeftToeBase
					{
						OFFSET 0.200000 -0.500000 1.950000
						CHANNELS 3 Zrotation Yrotation Xrotation
						End Site
						{
							OFFSET 0.000000 0.000000 0.000000
						}
					}
				}
			}
		}
	}
	JOINT RHipJoint
	{
		OFFSET 0.000000 0.000000 0.000000
		CHANNELS 3 Zrotation Yrotation Xrotation
		JOINT RightUpLeg
		{
			OFFSET -1.800000 -1.400000 0.085000
			CHANNELS 3 Zrotation Yrotation Xrotation
			JOINT RightLeg
			{
				OFFSET -2.215000 -6.000000 0.000000
				CHANNELS 3 Zrotation Yrotation Xrotation
				JOINT RightFoot
				{
					OFFSET -2.500000 -6.900000 0.000000
					CHANNELS 3 Zrotation Yrotation Xrotation
					JOINT RightToeBase
					{
						OFFSET -0.200000 -0.500000 1.950000
						CHANNELS 3 Zrotation Yrotation Xrotation
						End Site
						{
							OFFSET 0.000000 0.000000 0.000000
						}
					}
				}
			}
		}
	}
	JOINT LowerBack
	{
		OFFSET 0.000000 0.000000 0.000000
		CHANNELS 3 Zrotation Yrotation Xrotation
		JOINT Spine
		{
			OFFSET -0.087000 1.940000 -0.288900
			CHANNELS 3 Zrotation Yrotation Xrotation
			JOINT Spine1
			{
				OFFSET 0.000000 1.950000 0.060000
				CHANNELS 3 Zrotation Yrotation Xrotation
				JOINT Neck
				{
					OFFSET 0.000000 0.000000 0.000000
					CHANNELS 3 Zrotation Yrotation Xrotation
					JOINT Neck1
					{
						OFFSET 0.000000 1.600000 0.340000
						CHANNELS 3 Zrotation Yrotation Xrotation
						JOINT Head
						{
							OFFSET 0.000000 1.667000 -0.240000
							CHANNELS 3 Zrotation Yrotation Xrotation
							End Site
							{
								OFFSET 0.000000 0.000000 0.000000
							}
						}
					}
				}
				JOINT LeftShoulder
				{
					OFFSET 0.000000 0.000000 0.000000
					CHANNELS 3 Zrotation Yrotation Xrotation
					JOINT LeftArm
					{
						OFFSET 2.700000 1.550000 -0.730000
						CHANNELS 3 Zrotation Yrotation Xrotation
						JOINT LeftForeArm
						{
							OFFSET 5.450000 0.000000 0.000000
							CHANNELS 3 Zrotation Yrotation Xrotation
							JOINT LeftHand
							{
								OFFSET 3.450000 0.000000 0.000000
								CHANNELS 3 Zrotation Yrotation Xrotation
								JOINT LeftHandIndex1
								{
									OFFSET 0.750000 0.000000 0.000000
									CHANNELS 3 Zrotation Yrotation Xrotation
									End Site
									{
										OFFSET 0.000000 0.000000 0.000000
									}
								}
							}
						}
					}
				}
				JOINT RightShoulder
				{
					OFFSET 0.000000 0.000000 0.000000
					CHANNELS 3 Zrotation Yrotation Xrotation
					JOINT RightArm
					{
						OFFSET -2.700000 1.550000 -0.730000
						CHANNELS 3 Zrotation Yrotation Xrotation
						JOINT RightForeArm
						{
							OFFSET -5.450000 0.000000 0.000000
							CHANNELS 3 Zrotation Yrotation Xrotation
							JOINT RightHand
							{
								OFFSET -3.450000 0.000000 0.000000
								CHANNELS 3 Zrotation Yrotation Xrotation
								JOINT RightHandIndex1
								{
									OFFSET -0.750000 0.000000 0.000000
									CHANNELS 3 Zrotation Yrotation Xrotation
									End Site
									{
										OFFSET 0.000000 0.000000 0.000000
									}
								}
							}
						}
					}
				}
			}
		}
	}
}
MOTION
Frames: 12
Frame Time: 0.016667
-0.817220 17.250000 -3.115380 8.459639 4.622123 -11.768983 -15.649109 11.327156 5.974415 -25.936763 -12.445163 -63.351817 -4.105083 3.051962 4.418986 -0.761753 0.858998 4.176465 0.495170 0.337920 0.444820 17.888060 -9.937711 2.427180 -16.673567 6.438503 -0.794952 18.624823 -8.596460 18.475935 -0.816375 -5.458543 2.481792 0.070210 -0.295220 0.065140 -2.544839 -1.485956 -8.915435 5.251188 11.380686 47.219293 -3.862543 15.434620 3.378910 7.302798 1.839826 -13.297305 5.211173 -6.893824 47.654084 -3.573950 -4.736560 -30.339680 -37.612377 -14.442237 5.038889 -43.576301 12.889292 -13.119230 -27.367835 -16.214824 -0.732941 -2.963552 2.898278 0.726320 -0.347780 0.325140 0.014340 22.094215 28.097042 10.155997 30.831283 27.691739 -18.901190 -113.817032 47.593629 -80.754017 2.292623 -0.528969 -0.001040 0.215820 -0.091870 -0.248270 
-0.825110 17.226430 -3.108450 9.026901 4.972929 -12.030803 -15.667839 11.221700 6.103545 -25.950328 -13.096622 -64.997193 -2.776922 3.378607 9.735602 -0.715280 1.105122 4.069553 0.490100 0.336560 0.425370 17.888298 -9.856579 2.427098 -17.408596 6.704989 -0.192500 19.190343 -8.738688 18.175469 -0.830640 -5.561011 2.443910 0.064670 -0.284080 0.066020 -2.521364 -1.498870 -8.952105 4.762996 11.568910 47.479123 -3.718996 15.421878 3.817379 7.197725 1.333060 -13.540772 4.193896 -6.560400 47.692419 -2.682100 -5.084480 -30.258620 -36.560738 -14.693313 5.251217 -44.059394 12.717964 -13.334748 -27.499453 -16.751866 -0.648607 -2.973747 2.905688 0.720530 -0.349340 0.320830 0.019990 21.339618 28.876547 10.304585 29.890146 27.520541 -19.707943 -113.505155 46.781648 -79.377079 2.298030 -0.561521 0.005100 0.215450 -0.087780 -0.235100 
-0.844670 17.198090 -3.094330 10.407858 5.120587 -12.519210 -15.711496 11.143575 6.220178 -26.093900 -13.755349 -66.824051 -0.548831 3.845018 17.143352 -0.611490 1.723519 3.821587 0.480790 0.334310 0.405660 17.868661 -9.742995 2.392881 -18.829092 7.009629 0.796959 19.589936 -8.890263 17.765525 -0.840334 -5.692171 2.398843 0.058380 -0.273760 0.057630 -2.422879 -1.604059 -8.957187 3.016705 12.501569 47.860227 -3.248034 15.635773 4.708470 7.002028 0.877230 -14.110328 3.228106 -6.240308 47.355270 -1.763770 -5.367690 -30.038080 -34.354210 -15.382384 5.809845 -44.770000 12.833200 -14.011507 -29.189619 -17.792343 -0.484699 -2.986576 2.909634 0.711120 -0.350770 0.315360 0.026360 19.669883 30.318115 10.598533 28.243576 27.157032 -21.018988 -113.561944 45.089101 -77.741615 2.309378 -0.619026 0.008020 0.219440 -0.087780 -0.222180 
-0.858800 17.174130 -3.072020 11.770041 5.259970 -12.921787 -15.763938 11.002192 6.375361 -25.921494 -14.829796 -69.463510 2.654437 4.428802 27.231392 -0.398732 3.085115 3.305633 0.466290 0.330320 0.373140 17.863251 -9.582665 2.340248 -20.304365 7.235090 1.889705 20.106994 -9.077545 17.177591 -0.847961 -5.854387 2.343399 0.054420 -0.248000 0.052720 -2.320338 -1.671135 -8.979047 1.049869 13.428504 47.777243 -2.297544 15.727341 5.839036 6.637947 0.276680 -14.424148 2.125603 -5.663849 46.182177 -0.910930 -5.510820 -28.899500 -30.843348 -15.342429 6.293321 -45.948553 13.079348 -14.987165 -32.990550 -18.780249 -0.235091 -3.033085 2.923735 0.681810 -0.336410 0.297360 0.040310 17.024310 31.121345 10.524405 26.569520 26.924362 -21.188565 -114.566875 42.191559 -76.602761 2.295278 -0.746313 0.011830 0.217470 -0.087980 -0.201150 
-0.868590 17.163750 -3.037820 12.902680 5.322335 -13.140164 -15.816192 10.876039 6.498959 -25.030716 -15.851614 -71.863542 5.521916 5.044637 37.442987 -0.103366 4.919640 2.644940 0.426040 0.297530 0.320120 17.866664 -9.441706 2.245450 -21.417064 7.153424 2.685441 20.139169 -9.216645 16.782220 -0.823173 -5.976696 2.307560 0.038130 -0.196060 0.050850 -2.223124 -1.730737 -8.987556 -1.163524 14.285173 47.016160 -0.793061 15.599623 7.031964 5.953857 -0.301868 -14.540397 1.145509 -4.863797 44.057726 -0.226330 -5.415070 -26.362840 -26.467019 -14.849302 6.943803 -47.327457 14.067320 -16.333710 -39.409391 -19.645262 0.104525 -3.118511 2.957248 0.627810 -0.293740 0.249400 0.044390 14.139011 31.204615 10.117769 24.644938 26.895037 -20.058030 -116.417392 39.305482 -76.659055 2.261553 -0.887946 0.010620 0.206130 -0.068460 -0.178430 
-0.873140 17.197440 -3.004760 13.871599 5.106062 -13.446510 -15.869718 10.860497 6.542880 -23.483015 -16.239935 -72.898995 7.237383 5.925772 46.614190 0.208253 6.796423 2.012194 0.400020 0.264070 0.295600 17.857224 -9.377143 2.085437 -22.048774 6.674338 3.265142 18.989684 -9.180482 16.728230 -0.776526 -5.978577 2.319437 0.037100 -0.146060 0.049870 -2.109168 -1.861600 -8.930663 -3.470227 15.266616 46.107135 0.837573 15.576747 8.132566 5.333265 -0.290276 -14.320566 1.247260 -4.336789 41.861721 -0.030690 -5.121110 -23.996990 -22.644169 -13.994730 7.390491 -47.468885 15.204624 -17.177763 -47.252873 -19.413634 0.267173 -3.196656 2.986980 0.589790 -0.246070 0.204090 0.051390 11.551387 30.376197 9.411581 22.579000 26.979000 -18.217042 -118.797572 36.607829 -77.383112 2.207235 -1.033448 -0.009370 0.207620 -0.056930 -0.174480 
-0.874920 17.284130 -2.973070 14.338834 4.783848 -14.164719 -15.912472 10.960238 6.518823 -21.339891 -15.841728 -72.422113 7.771849 7.269634 54.404519 0.518867 8.493169 1.477789 0.365360 0.223680 0.265580 17.838112 -9.378141 1.914407 -21.942221 5.876197 4.095958 17.069942 -8.978137 16.692304 -0.727980 -5.892657 2.376353 0.030520 -0.085790 0.048090 -2.006310 -2.085747 -8.855110 -5.156151 15.852164 45.668805 2.100817 15.492144 9.152118 4.972953 -0.326252 -14.067111 1.204965 -3.567369 40.283950 -0.024020 -4.709910 -22.120700 -19.502673 -13.153501 7.667047 -46.636299 16.372296 -17.619156 -55.521387 -18.118035 -0.093808 -3.269205 3.002182 0.561750 -0.197400 0.161140 0.055460 9.095006 29.481488 8.725788 20.086982 27.012322 -16.595126 -121.562705 32.618744 -76.425403 2.143325 -1.194326 -0.035630 0.228950 -0.031790 -0.170160 
-0.879730 17.403920 -2.938910 14.700666 3.873158 -14.747906 -15.956746 11.142055 6.400357 -18.946975 -14.696786 -71.068390 7.790423 9.048879 60.854988 0.817627 9.975374 1.031319 0.330150 0.184540 0.238240 17.807403 -9.416778 1.739627 -21.539533 4.983724 4.416520 14.744578 -8.603641 16.693857 -0.662199 -5.731335 2.454476 0.021680 -0.028710 0.059380 -1.884429 -2.328409 -8.708529 -7.098372 16.954160 44.860742 3.650623 15.840332 9.929368 4.602060 0.085522 -13.571318 2.011245 -2.960243 38.122621 -0.207220 -3.948560 -20.426310 -16.815625 -11.439306 7.690102 -45.399184 18.196305 -17.964433 -63.812834 -17.176603 -0.386810 -3.328156 3.039866 0.527940 -0.141260 0.118700 0.051770 7.001860 27.504638 7.927593 17.757352 27.219300 -14.798707 -124.516873 27.908844 -73.620117 2.086265 -1.363391 -0.053500 0.233480 -0.003200 -0.168400 
-0.884160 17.553900 -2.903010 14.957897 2.606964 -15.562912 -15.978493 11.443410 6.145732 -16.012050 -12.497106 -67.909429 6.206934 11.879153 65.344945 1.061848 11.226899 0.669364 0.284240 0.130920 0.203790 17.765387 -9.513252 1.625621 -20.972959 4.079106 4.737089 12.280197 -8.102283 16.360007 -0.600664 -5.527426 2.551113 0.011060 0.024600 0.056810 -1.782645 -2.600257 -8.535552 -8.884338 17.947311 43.875418 5.009520 16.149938 10.883601 4.271795 0.346704 -13.252471 2.517059 -2.125443 37.447068 -0.399580 -3.130650 -18.889980 -14.264107 -9.984898 7.611231 -43.764719 19.672110 -18.079244 -71.408580 -14.964071 -1.793103 -3.373670 3.042187 0.521580 -0.096440 0.080190 0.042500 5.060656 25.769404 7.527395 16.213243 27.496519 -13.389533 -127.115833 23.554888 -70.018510 2.035987 -1.460290 -0.091390 0.256980 0.039000 -0.177250 
-0.881000 17.729050 -2.863180 14.912801 1.514127 -16.735708 -15.981310 11.851464 5.770699 -13.628082 -10.044246 -62.297500 4.369403 14.444757 67.146879 1.219390 11.970311 0.459742 0.262120 0.090120 0.192900 17.711334 -9.620884 1.602114 -20.438513 3.340778 5.290123 10.452829 -7.722720 15.958986 -0.574995 -5.396285 2.608807 0.001450 0.054190 0.069710 -1.692168 -2.947252 -8.363878 -9.955797 18.483837 43.454651 6.002120 16.294862 11.620710 4.058845 0.389310 -12.769034 2.560871 -1.433687 37.628848 -0.414340 -2.705290 -18.002880 -12.517518 -8.239401 7.090538 -41.259436 20.611498 -17.813028 -78.173186 -12.008681 -4.113507 -3.394476 3.055862 0.531130 -0.071480 0.061570 0.031110 3.701102 23.896061 7.319398 15.133474 27.568316 -11.869532 -129.875477 20.300454 -67.430683 1.999273 -1.524412 -0.112800 0.264440 0.070910 -0.188280 
-0.863660 17.914410 -2.828920 14.022839 -0.248313 -18.489770 -15.937416 12.397248 5.257669 -10.927785 -6.913142 -55.365913 2.792352 16.350680 67.136571 1.314680 12.270632 0.372106 0.278440 0.110790 0.207210 17.666456 -9.849262 1.640336 -19.281142 2.687602 5.634319 8.641584 -7.358887 16.466582 -0.581778 -5.260588 2.669304 0.008500 0.039770 0.069480 -1.679975 -3.193486 -8.194805 -9.142843 18.167076 44.201856 6.017213 16.365906 12.081705 4.091517 -0.012184 -12.224323 1.809736 -0.740991 38.807376 -0.711890 -2.331980 -18.099060 -11.412903 -6.392110 6.261882 -38.306709 21.170857 -17.529940 -84.283061 -8.117220 -7.813094 -3.362898 3.065462 0.542280 -0.082000 0.078860 0.031940 2.471339 22.278646 7.166504 14.780907 27.901570 -10.349902 -131.994942 17.858906 -64.954365 1.984907 -1.564829 -0.105410 0.270650 0.065100 -0.189990 
-0.831910 18.088940 -2.804080 12.063450 -2.269475 -20.346784 -15.831060 12.982439 4.691649 -7.760844 -3.652116 -47.744833 1.350400 17.249914 64.990090 1.311290 12.019367 0.432034 0.325840 0.169390 0.247590 17.660167 -10.210498 1.739864 -17.038509 2.125827 5.399330 6.815991 -6.970443 18.321139 -0.609786 -5.114243 2.730725 0.017730 -0.014210 0.066410 -1.799541 -3.203032 -8.053933 -6.037323 16.565845 46.015709 4.859370 16.084407 12.007942 4.308828 -0.689348 -11.849496 0.538355 -0.246850 40.649709 -1.116520 -2.185330 -18.777040 -10.808866 -4.755413 5.278874 -35.354699 21.382700 -17.370276 -89.378355 -3.946353 -12.438050 -3.289721 3.082815 0.556000 -0.122480 0.121870 0.037200 1.353656 20.815934 7.219790 15.412280 27.936612 -8.902562 -133.611920 16.513322 -63.869674 1.989389 -1.595424 -0.068710 0.259210 0.028740 -0.187030 
